<svg id="canvas" height="auto" xmlns="http://www.w3.org/2000/svg" version="1.1" xmlns:xlink="http://www.w3.org/1999/xlink" viewBox="0 0 900 512" width="auto" style="width: auto; height: auto;"><rect width="900" height="512" fill="#ffffffff"/><path d="M-450,-223.4890058305433C-388.60687385244563,-212.8608654981219,-189.9448222525939,-176.47537610204083,-81.64124311467364,-159.720163836015C26.662336023246596,-142.96495156998915,95.71520491196384,-149.5220297587735,199.82147482752146,-122.95773223438826C303.9277447430791,-96.39343471000302,426.29995551659226,-26.245833090344387,542.996376378672,-0.33437868970356277C659.6927972407518,25.57707571093726,840.499396063112,27.036765359596647,900,32.51099416945669L 900 512 L -450 512 Z" fill="#227c9d"/><path d="M-450,-163.18547481352914C-415.5045844269093,-155.27024701242195,-313.7060547878193,-129.9172580739069,-243.02750656145554,-115.69410800688604C-172.34895833509177,-101.47095793986517,-105.95616805178511,-97.14967510716211,-25.928710641817254,-77.84657441140396C54.0987467681506,-58.54347371564582,163.25039992081753,-24.997853913857977,237.1372378983516,0.12449616766281224C311.02407587588567,25.2468462491836,346.7256638737078,63.93099047168573,417.3923172233873,72.88752607772075C488.0589705730668,81.84406168375577,580.7025442003267,43.732130587335206,661.1371579964288,53.86370980387292C741.5717717925309,63.99528902041064,860.1895263327381,120.37478611476801,900,133.67700137694703L 900 512 L -450 512 Z" fill="#17c3b2"/><path d="M-450,-100.59650056568265C-414.850100385228,-96.15793465105497,-298.86892757717146,-90.51044041995523,-239.1006023113682,-73.96510507791663C-179.3322770455649,-57.419769735878035,-155.80709139564993,-23.068307320239263,-91.39004840518027,-1.3244885134510653C-26.973005414710613,20.419330293337133,76.16194622950208,44.63442269743493,147.4016556314497,56.49780776281254C218.64136503339734,68.36119282819016,277.6469323084209,58.231258776657185,336.0482080065055,69.85582187881462C394.4494837045901,81.48038498097206,438.64622799757706,108.53817661643347,497.8093098199571,126.24518637575717C556.9723916423371,143.95219613508087,623.994917244112,157.61733619483806,691.0266989407859,176.09788043475683C758.0584806374598,194.5784246746756,865.171116490131,226.95668991851758,900,237.12845181526973L 900 512 L -450 512 Z" fill="#ffcb77"/><path d="M-450,-41.32859018847033C-415.25128637202005,-34.22600014442387,-317.70464636597126,-23.314413603343777,-241.50771823212034,1.2869500758084058C-165.31079009826942,25.88831375496059,-69.93103368551081,84.6221286689428,7.181568803105556,106.27959188644277C84.29417129172191,127.93705510394274,142.11202191374053,118.85783375759526,221.1678966995778,131.2317293808082C300.22377148541506,143.6056250040211,400.24335222705895,154.07610266109197,481.51681751812924,180.52296562572033C562.7902828091995,206.9698285903487,639.0614913656879,263.7902617090388,708.8086884459997,289.91290716857844C778.5558855263115,316.03555262811807,868.1347814076667,329.3678498472283,900,337.25883838295823L 900 512 L -450 512 Z" fill="#fef9ef"/><path d="M-450,41.065211781295375C-416.7035936113891,56.33283243733978,-326.198839655489,111.39392531592922,-250.22156166833472,132.6709357175618C-174.24428368118043,153.9479461191944,-70.47517906330214,150.6676217916466,5.863667922925725,168.72727419109088C82.20251490915359,186.78692659053516,130.55295849104908,213.90973631304075,207.8115202490325,241.02885011422748C285.0700820070159,268.1479639154142,387.4614005823637,307.628158886456,469.41503847082623,331.4419569982113C551.3686763592888,355.25575510996663,627.7691873249454,362.3994455272611,699.5333475798077,383.91163878475925C771.29750783467,405.4238320422574,866.5888912633013,447.74787025012665,900,460.5151165432001L 900 512 L -450 512 Z" fill="#fe6d73"/><path d="M-450,93.13615828494976C-424.529106043071,97.34492497142543,-359.40096879203634,97.62501249516919,-297.1746362584259,118.38875840380373C-234.94830372481545,139.15250431243828,-140.22379179183366,195.16300671577918,-76.64200479833725,217.71863373675706C-13.060217804840839,240.27426075773494,34.39475464882903,240.16521636936136,84.31608570255261,253.72252052967104C134.2374167562762,267.2798246899807,165.1386912491167,273.4544044822519,222.88598152400425,299.0624586986151C280.63327179889177,324.6705129149783,375.3173002171669,383.4647203556494,430.79982735187787,407.3708458278501C486.2823544865888,431.2769713000508,508.8876246084127,423.4824494942115,555.7811443322698,442.4992115318194C602.674664056127,461.51597356942733,654.7911364170658,502.9798634359125,712.1609456950208,521.4714180534977C769.5307549729758,539.9629726710829,868.6934909491702,548.1190190400253,900,553.4485392373307L 900 512 L -450 512 Z" fill="#227c9d"/><path d="M-450,153.73213301023105C-401.8173192706805,171.27395563343566,-248.35510433263602,228.9931855482336,-160.90391562408325,258.98306874945877C-73.45272691553049,288.9729519506839,-15.996111321116231,299.09281702767925,74.7071322513166,333.671432217582C165.4103758237494,368.2500474074847,292.1949883322617,429.89645322510376,383.31554581051364,466.4547598888751C474.4361032887656,503.0130665526465,535.3164014225807,521.6125671561745,621.4304771208284,553.02127220021C707.5445528190761,584.4299772442455,853.5717461868047,637.9260371609417,900,654.9069901530881L 900 512 L -450 512 Z" fill="#17c3b2"/></svg>